<?xml version="1.0" encoding="UTF-8" standalone="no"?>
<!DOCTYPE svg PUBLIC "-//W3C//DTD SVG 1.1//EN" "http://www.w3.org/Graphics/SVG/1.1/DTD/svg11.dtd">
<svg width="100%" height="100%" viewBox="0 0 3508 2481" version="1.1" xmlns="http://www.w3.org/2000/svg" xmlns:xlink="http://www.w3.org/1999/xlink" xml:space="preserve" xmlns:serif="http://www.serif.com/" style="fill-rule:evenodd;clip-rule:evenodd;stroke-linecap:round;stroke-linejoin:round;stroke-miterlimit:1.5;">
    <g transform="matrix(1.57642,0,0,2.15289,-95.0665,-1820.73)">
        <path d="M894.566,1177.78C925.457,1177.78 953.218,1181.74 977.851,1189.67C1002.48,1197.6 1024.99,1208.25 1045.36,1221.62C1065.73,1234.99 1084.97,1249.69 1103.08,1265.73C1108.4,1270.34 1113.8,1275.14 1119.25,1280.12C1124.71,1285.1 1129.97,1290.08 1135.03,1295.05C1139.56,1290.81 1144.02,1286.66 1148.41,1282.61C1152.81,1278.55 1157.13,1274.59 1161.4,1270.71C1189.36,1245.45 1219.98,1223.64 1253.27,1205.3C1286.56,1186.95 1327.03,1177.78 1374.7,1177.78C1409.05,1177.78 1440.14,1183.58 1467.97,1195.2C1495.8,1206.82 1517.83,1222.58 1534.08,1242.5C1550.32,1262.41 1558.44,1284.73 1558.44,1309.44C1558.44,1328.25 1553.78,1345.72 1544.46,1361.85C1535.14,1377.99 1522.1,1392.05 1505.32,1404.04C1488.54,1416.02 1469.04,1425.38 1446.8,1432.11C1424.56,1438.84 1400.53,1442.21 1374.7,1442.21C1341.94,1442.21 1312.52,1437.5 1286.42,1428.1C1260.33,1418.69 1236.42,1406.34 1214.72,1391.04C1193.02,1375.73 1172.31,1359.23 1152.61,1341.52C1149.94,1338.76 1147.08,1335.99 1144.02,1333.23C1140.96,1330.46 1137.96,1327.69 1135.03,1324.93C1131.57,1328.43 1127.91,1331.89 1124.05,1335.3C1120.19,1338.71 1116.39,1342.26 1112.66,1345.95C1093.49,1363.1 1073.25,1378.96 1051.95,1393.52C1030.64,1408.09 1007.21,1419.85 981.645,1428.79C956.081,1437.74 927.321,1442.21 895.365,1442.21C859.948,1442.21 828.391,1436.35 800.697,1424.64C773.002,1412.93 751.232,1397.07 735.387,1377.07C719.543,1357.06 711.62,1334.52 711.62,1309.44C711.62,1290.81 716.281,1273.53 725.601,1257.58C734.921,1241.62 747.97,1227.7 764.747,1215.81C781.523,1203.91 800.963,1194.6 823.066,1187.87C845.168,1181.14 869.002,1177.78 894.566,1177.78ZM737.185,1309.44C736.919,1329.72 743.975,1348.62 758.355,1366.14C772.735,1383.66 791.975,1397.77 816.075,1408.46C840.175,1419.16 866.605,1424.5 895.365,1424.5C937.706,1424.5 974.189,1415.88 1004.81,1398.64C1035.44,1381.4 1063.93,1360.88 1090.29,1337.1C1095.09,1332.67 1099.88,1328.2 1104.67,1323.68C1109.47,1319.16 1114.26,1314.6 1119.05,1309.99C1112.66,1303.9 1106.27,1297.96 1099.88,1292.15C1093.49,1286.34 1087.1,1280.67 1080.71,1275.14C1055.14,1253.01 1027.65,1234.2 998.222,1218.71C968.796,1203.22 934.244,1195.48 894.566,1195.48C867.138,1195.48 841.44,1200.78 817.473,1211.38C793.507,1221.99 774.133,1235.95 759.354,1253.29C744.575,1270.62 737.185,1289.34 737.185,1309.44ZM1532.88,1309.44C1532.88,1289.34 1525.49,1270.62 1510.71,1253.29C1495.93,1235.95 1476.49,1221.99 1452.39,1211.38C1428.29,1200.78 1402.39,1195.48 1374.7,1195.48C1347.27,1195.48 1322.37,1199.3 1300,1206.96C1277.63,1214.61 1256.93,1224.84 1237.89,1237.66C1218.85,1250.48 1200.54,1264.63 1182.97,1280.12L1151.01,1309.99C1154.74,1313.49 1158.4,1316.95 1162,1320.36C1165.59,1323.78 1169.38,1327.32 1173.38,1331.01C1200.54,1356.09 1229.83,1377.94 1261.26,1396.57C1292.68,1415.19 1330.49,1424.5 1374.7,1424.5C1402.39,1424.5 1428.29,1419.16 1452.39,1408.46C1476.49,1397.77 1495.93,1383.66 1510.71,1366.14C1525.49,1348.62 1532.88,1329.72 1532.88,1309.44Z" style="fill:rgb(67,121,72);fill-rule:nonzero;"/>
    </g>
    <g transform="matrix(1,0,0,1,-277.076,47.7043)">
        <text x="2520.63px" y="617.343px" style="font-family:'Inter-Bold', 'Inter', sans-serif;font-weight:700;font-size:83.333px;">Disco<tspan x="2749.3px 2796.62px " y="617.343px 617.343px ">ve</tspan>r</text>
    </g>
    <g transform="matrix(1,0,0,1,-69.8147,395.868)">
        <text x="2520.63px" y="617.343px" style="font-family:'Inter-Bold', 'Inter', sans-serif;font-weight:700;font-size:83.333px;">List<tspan x="2669.31px " y="617.343px ">e</tspan>n</text>
    </g>
    <g transform="matrix(1,0,0,1,-235.347,704.303)">
        <text x="2595.16px" y="617.343px" style="font-family:'Inter-Bold', 'Inter', sans-serif;font-weight:700;font-size:83.333px;">Understand</text>
        <text x="2807.94px" y="700.676px" style="font-family:'Inter-Bold', 'Inter', sans-serif;font-weight:700;font-size:83.333px;">&amp;</text>
        <text x="2709.63px" y="784.009px" style="font-family:'Inter-Bold', 'Inter', sans-serif;font-weight:700;font-size:83.333px;">Model</text>
    </g>
    <g transform="matrix(1,0,0,1,-919.835,767.334)">
        <text x="2764.33px" y="617.343px" style="font-family:'Inter-Bold', 'Inter', sans-serif;font-weight:700;font-size:83.333px;">(In)</text>
        <text x="2673.9px" y="700.676px" style="font-family:'Inter-Bold', 'Inter', sans-serif;font-weight:700;font-size:83.333px;">v<tspan x="2721.45px " y="700.676px ">a</tspan>lidat<tspan x="2948.34px " y="700.676px ">e</tspan></text>
        <text x="2666.79px" y="784.009px" style="font-family:'Inter-Bold', 'Inter', sans-serif;font-weight:700;font-size:83.333px;">Pr<tspan x="2752.7px " y="784.009px ">o</tspan>blem</text>
    </g>
    <g transform="matrix(1,0,0,1,-1306.31,-47.1747)">
        <text x="2733.44px" y="617.343px" style="font-family:'Inter-Bold', 'Inter', sans-serif;font-weight:700;font-size:83.333px;">Build</text>
        <text x="2670.8px" y="700.676px" style="font-family:'Inter-Bold', 'Inter', sans-serif;font-weight:700;font-size:83.333px;">solution</text>
    </g>
    <g transform="matrix(1,0,0,1,9.0953,110.117)">
        <g transform="matrix(1,0,0,1,-1255.31,-513.662)">
            <text x="2679.12px" y="617.343px" style="font-family:'Inter-Medium', 'Inter', sans-serif;font-weight:500;font-size:83.333px;fill:rgb(0,102,255);">Pr<tspan x="2762.75px " y="617.343px ">o</tspan>duct</text>
        </g>
        <g transform="matrix(9.87865,0,0,9.87865,1467.71,132.336)">
            <path d="M20,2L4,2C3,2 2,2.9 2,4L2,7.01C2,7.73 2.43,8.35 3,8.7L3,20C3,21.1 4.1,22 5,22L19,22C19.9,22 21,21.1 21,20L21,8.7C21.57,8.35 22,7.73 22,7.01L22,4C22,2.9 21,2 20,2ZM19,20L5,20L5,9L19,9L19,20ZM20,7L4,7L4,4L20,4L20,7Z" style="fill:rgb(0,100,249);fill-rule:nonzero;"/>
            <rect x="9" y="12" width="6" height="2" style="fill:rgb(0,100,249);"/>
        </g>
    </g>
    <g transform="matrix(1,0,0,1,-2017.02,6.63854)">
        <text x="2679.5px" y="617.343px" style="font-family:'Inter-Bold', 'Inter', sans-serif;font-weight:700;font-size:83.333px;">Demo &amp;</text>
        <text x="2764.33px" y="700.676px" style="font-family:'Inter-Bold', 'Inter', sans-serif;font-weight:700;font-size:83.333px;">(In)</text>
        <text x="2673.9px" y="784.009px" style="font-family:'Inter-Bold', 'Inter', sans-serif;font-weight:700;font-size:83.333px;">v<tspan x="2721.45px " y="784.009px ">a</tspan>lidat<tspan x="2948.34px " y="784.009px ">e</tspan></text>
        <text x="2670.8px" y="867.343px" style="font-family:'Inter-Bold', 'Inter', sans-serif;font-weight:700;font-size:83.333px;">solution</text>
    </g>
    <g transform="matrix(1,0,0,1,-1946.29,615.264)">
        <text x="2720.36px" y="617.343px" style="font-family:'Inter-Bold', 'Inter', sans-serif;font-weight:700;font-size:83.333px;">Learn</text>
    </g>
    <g transform="matrix(1,0,0,1,-1606.63,814.954)">
        <text x="2712.74px" y="617.343px" style="font-family:'Inter-Bold', 'Inter', sans-serif;font-weight:700;font-size:83.333px;">A<tspan x="2772.93px " y="617.343px ">d</tspan>apt</text>
        <text x="2768.45px" y="700.676px" style="font-family:'Inter-Bold', 'Inter', sans-serif;font-weight:700;font-size:83.333px;">t<tspan x="2801.77px " y="700.676px ">h</tspan>e</text>
        <text x="2748.25px" y="784.009px" style="font-family:'Inter-Bold', 'Inter', sans-serif;font-weight:700;font-size:83.333px;">plan</text>
    </g>
    <g transform="matrix(1,0,0,1,-48.2609,-241.42)">
        <path d="M2200.21,1063.84C2209.06,1040.9 2273.69,963.108 2273.69,945.118" style="fill:none;stroke:black;stroke-width:8.33px;"/>
    </g>
    <g transform="matrix(1,0,0,1,-48.2609,-241.42)">
        <path d="M2337.93,1221.4C2364.95,1221.4 2392.48,1220.82 2419.54,1220.82C2422.97,1220.82 2443.62,1222.76 2446.53,1219.8C2448.3,1218 2461.66,1219.79 2460.22,1219.79" style="fill:none;stroke:black;stroke-width:8.33px;"/>
    </g>
    <g transform="matrix(1,0,0,1,-48.2609,-241.42)">
        <path d="M2249.66,1365.44C2277.81,1407.9 2336.63,1427.8 2375.45,1456.83C2377.09,1458.06 2382.31,1461.27 2382.31,1462.7" style="fill:none;stroke:black;stroke-width:8.33px;"/>
    </g>
    <g transform="matrix(1,0,0,1,-48.2609,-241.42)">
        <path d="M2050.46,1430.46C2023.53,1457.1 2015.59,1504.06 1994.68,1535.07C1993.82,1536.35 1991.33,1541.42 1990.22,1541.42" style="fill:none;stroke:black;stroke-width:8.33px;"/>
    </g>
    <g transform="matrix(1,0,0,1,-48.2609,-241.42)">
        <path d="M1470.15,1057.74C1470.15,1022.6 1532.74,984.496 1532.74,952.949" style="fill:none;stroke:black;stroke-width:8.33px;"/>
    </g>
    <g transform="matrix(-12.1071,0,0,1.08025,18257,-356.504)">
        <path d="M1401.2,1437.94C1401.2,1482.7 1404.89,1526.76 1404.89,1571.03" style="fill:none;stroke:black;stroke-width:0.97px;"/>
    </g>
    <g transform="matrix(0.955099,0,0,1.78314,0.121752,-1346.55)">
        <path d="M1077.53,1411.16C1096.38,1404.81 1187.71,1378.84 1196.81,1369.58C1197.54,1368.84 1199.74,1367.8 1199.74,1367.1" style="fill:none;stroke:black;stroke-width:5.83px;"/>
    </g>
    <g transform="matrix(0.724312,0,0,1.36707,249.233,-625.075)">
        <path d="M1079.1,1045.19C1086.9,1052.99 1251.59,1111.53 1264.32,1111.53" style="fill:none;stroke:black;stroke-width:7.62px;"/>
    </g>
    <g transform="matrix(20.875,0,0,20.9688,1693.68,507.486)">
        <rect x="0" y="0" width="24" height="24" style="fill:none;fill-rule:nonzero;"/>
    </g>
    <g transform="matrix(-11.0798,-4.07064e-15,4.06809e-15,-11.0728,2202.26,1129.07)">
        <path d="M17.65,6.35C16.2,4.9 14.21,4 12,4C7.58,4 4.01,7.58 4.01,12C4.01,16.42 7.58,20 12,20C15.73,20 18.84,17.45 19.73,14L17.65,14C16.83,16.33 14.61,18 12,18C8.69,18 6,15.31 6,12C6,8.69 8.69,6 12,6C13.66,6 15.14,6.69 16.22,7.78L13,11L20,11L20,4L17.65,6.35Z" style="fill:rgb(178,6,6);fill-rule:nonzero;"/>
    </g>
    <g transform="matrix(11.0798,0,0,-11.0728,1190.96,1125.77)">
        <path d="M17.65,6.35C16.2,4.9 14.21,4 12,4C7.58,4 4.01,7.58 4.01,12C4.01,16.42 7.58,20 12,20C15.73,20 18.84,17.45 19.73,14L17.65,14C16.83,16.33 14.61,18 12,18C8.69,18 6,15.31 6,12C6,8.69 8.69,6 12,6C13.66,6 15.14,6.69 16.22,7.78L13,11L20,11L20,4L17.65,6.35Z" style="fill:rgb(229,147,0);fill-rule:nonzero;"/>
    </g>
    <g transform="matrix(7.38189,0,0,7.38189,1473.75,175.467)">
        <rect x="0" y="0" width="24" height="24" style="fill:none;"/>
    </g>
    <g transform="matrix(7.38189,0,0,7.38189,1522.01,416.886)">
        <g transform="matrix(1.33823,0,0,1.33823,-157.177,41.9582)">
            <path d="M20,2L4,2C3,2 2,2.9 2,4L2,7.01C2,7.73 2.43,8.35 3,8.7L3,20C3,21.1 4.1,22 5,22L19,22C19.9,22 21,21.1 21,20L21,8.7C21.57,8.35 22,7.73 22,7.01L22,4C22,2.9 21,2 20,2ZM19,20L5,20L5,9L19,9L19,20ZM20,7L4,7L4,4L20,4L20,7Z" style="fill:rgb(0,100,249);fill-rule:nonzero;"/>
            <rect x="9" y="12" width="6" height="2" style="fill:rgb(0,100,249);"/>
        </g>
        <g transform="matrix(0.135467,0,0,0.232964,-208.888,-112.367)">
            <path d="M472.792,616.619C472.792,632.867 484.758,644.886 484.758,659.492" style="fill:none;stroke:rgb(0,103,255);stroke-width:10.37px;"/>
        </g>
        <g transform="matrix(0.135467,0,0,0.135467,-208.752,-47.0408)">
            <path d="M242.616,765.043C247.267,769.694 248.978,780.314 253.892,786.017C281.698,818.286 324.506,821.94 362.931,821.94" style="fill:none;stroke:rgb(0,103,255);stroke-width:14.58px;"/>
        </g>
    </g>
    <g transform="matrix(1,0,0,1,-280.471,80.6863)">
        <g transform="matrix(12.6547,0,0,9.84252,2479.3,253.431)">
            <path d="M16,7C16,9.194 14.194,11 12,11C9.806,11 8,9.194 8,7C8,4.806 9.806,3 12,3C14.194,3 16,4.806 16,7ZM12,14C8.16,14 5,17.16 5,21L19,21C19,17.16 15.84,14 12,14Z" style="fill:none;fill-rule:nonzero;stroke:rgb(0,103,255);stroke-width:1.29px;stroke-miterlimit:4;"/>
        </g>
        <g transform="matrix(1,0,0,1,39.8725,-229.311)">
            <text x="2699.54px" y="617.343px" style="font-family:'Inter-Medium', 'Inter', sans-serif;font-weight:500;font-size:83.333px;fill:rgb(0,102,255);">P<tspan x="2752.24px " y="617.343px ">e</tspan>ople</text>
        </g>
    </g>
    <g transform="matrix(1,0,0,1,-92.7971,77.2579)">
        <path d="M1181.36,1625.38C1208.34,1625.38 1236.23,1625.1 1263.34,1626C1335.21,1628.4 1407.8,1625.21 1478.97,1633.61C1507.88,1637.02 1535.89,1626.77 1563.52,1626.77C1563.95,1626.77 1564.29,1626.65 1564.49,1627.26C1579.05,1671.17 1564.39,1734.89 1561.07,1779.43C1558.1,1819.4 1561.27,1859.68 1557.04,1899.67C1553.83,1930.07 1550.11,1961.27 1550.11,1991.9C1550.11,2002.68 1549.08,2013.37 1549.08,2024.01L1549.08,2036.12C1549.08,2037.57 1549.08,2041.89 1549.08,2040.45C1549.08,2017.98 1428.79,1999.65 1410.18,1999.65C1326.61,1999.65 1243.64,1997.49 1160.4,1997.49C1136.12,1997.49 1109.97,1990.79 1085.78,1994.71C1078.47,1995.9 989.535,2000.41 985.808,1996.68C983.14,1994.01 990.204,1967.47 990.454,1963.7C993.466,1918.22 993.034,1872.78 993.034,1827.13C993.034,1794.94 992.665,1762.77 994.328,1730.68C995.413,1709.75 994.328,1688.38 994.328,1667.42C994.328,1662.31 992.113,1583.2 993.127,1582.16C994.649,1580.62 995.851,1588.12 996.051,1588.52C1001.5,1599.42 1029.67,1607.11 1041.41,1610.9C1084.07,1624.71 1133.65,1627.97 1177.76,1627.97" style="fill:none;stroke:rgb(0,103,255);stroke-width:14.58px;"/>
        <g transform="matrix(1,0,0,1,11.2013,0.487378)">
            <path d="M1116.31,1716.45C1123.18,1723.32 1120.12,1746.26 1120.12,1755.16C1120.12,1773.13 1127.7,1791.08 1124.62,1809.41C1119.31,1840.99 1108.19,1873.87 1108.19,1906.24C1108.19,1924.09 1105.94,1941.88 1105.94,1960C1105.94,1965.9 1105.44,1972.37 1105.44,1977.94C1105.44,1979.26 1105.29,1985.9 1106.42,1984.76" style="fill:none;stroke:rgb(0,103,255);stroke-width:14.58px;"/>
        </g>
        <g transform="matrix(1,0,0,1,32.0745,4.3864)">
            <path d="M1240.92,1724.84C1240.92,1816.17 1233.58,1906.19 1233.58,1997.04" style="fill:none;stroke:rgb(0,103,255);stroke-width:14.58px;"/>
        </g>
        <g transform="matrix(1,0,0,1,29.8141,0.957949)">
            <path d="M1382.92,1726.01C1404.32,1790.57 1383.15,1913.12 1383.15,1990.11" style="fill:none;stroke:rgb(0,103,255);stroke-width:14.58px;"/>
        </g>
        <g transform="matrix(1,0,0,1,0.327719,6.22667)">
            <path d="M1031.35,1677.48C1053.25,1671.96 1068.02,1676.27 1092.48,1676.27" style="fill:none;stroke:rgb(0,103,255);stroke-width:14.58px;"/>
        </g>
        <g transform="matrix(1,0,0,1,27.2679,1.94951)">
            <path d="M1143.78,1684.6C1165.94,1673.42 1182.11,1681.83 1201.82,1681.83" style="fill:none;stroke:rgb(0,103,255);stroke-width:14.58px;"/>
        </g>
        <g transform="matrix(1,0,0,1,26.6461,1.94951)">
            <path d="M1282.98,1688.28C1301.95,1679.23 1302.49,1682.41 1317.06,1689.69C1322.93,1692.63 1333.64,1686.17 1339.59,1686.17" style="fill:none;stroke:rgb(0,103,255);stroke-width:14.58px;"/>
        </g>
        <path d="M1442.65,1693.98C1451.67,1689.67 1509.23,1683.79 1517.19,1683.72C1521.47,1683.69 1520.53,1699.21 1531.06,1697.39C1532.11,1697.2 1535.38,1697.07 1535.38,1695.4" style="fill:none;stroke:rgb(0,103,255);stroke-width:14.58px;"/>
        <g transform="matrix(1,0,0,1,-1396.23,1483.84)">
            <text x="2520.63px" y="617.343px" style="font-family:'Inter-Medium', 'Inter', sans-serif;font-weight:500;font-size:83.333px;fill:rgb(0,102,255);">Kanban</text>
        </g>
    </g>
    <g transform="matrix(1,0,0,1,-107.825,102.529)">
        <g transform="matrix(12.6547,0,0,9.84252,2702.9,1430.83)">
            <path d="M16,7C16,9.194 14.194,11 12,11C9.806,11 8,9.194 8,7C8,4.806 9.806,3 12,3C14.194,3 16,4.806 16,7ZM12,14C8.16,14 5,17.16 5,21L19,21C19,17.16 15.84,14 12,14Z" style="fill:none;fill-rule:nonzero;stroke:rgb(0,103,255);stroke-width:1.29px;stroke-miterlimit:4;"/>
        </g>
        <g transform="matrix(1,0,0,1,453.034,955.621)">
            <text x="2542.64px" y="617.343px" style="font-family:'Inter-Medium', 'Inter', sans-serif;font-weight:500;font-size:83.333px;fill:rgb(0,102,255);">P<tspan x="2595.35px " y="617.343px ">e</tspan>rsona</text>
        </g>
    </g>
    <g transform="matrix(12.6547,0,0,9.84252,296.865,411.636)">
        <path d="M16,7C16,9.194 14.194,11 12,11C9.806,11 8,9.194 8,7C8,4.806 9.806,3 12,3C14.194,3 16,4.806 16,7ZM12,14C8.16,14 5,17.16 5,21L19,21C19,17.16 15.84,14 12,14Z" style="fill:none;fill-rule:nonzero;stroke:rgb(0,103,255);stroke-width:1.29px;stroke-miterlimit:4;"/>
    </g>
    <g transform="matrix(12.6547,0,0,9.84252,70.2597,589.486)">
        <path d="M16,7C16,9.194 14.194,11 12,11C9.806,11 8,9.194 8,7C8,4.806 9.806,3 12,3C14.194,3 16,4.806 16,7ZM12,14C8.16,14 5,17.16 5,21L19,21C19,17.16 15.84,14 12,14Z" style="fill:none;fill-rule:nonzero;stroke:rgb(0,103,255);stroke-width:1.29px;stroke-miterlimit:4;"/>
    </g>
    <g transform="matrix(1,0,0,1,22.9887,164.709)">
        <g transform="matrix(12.6547,0,0,9.84252,72.85,1480.67)">
            <path d="M16,7C16,9.194 14.194,11 12,11C9.806,11 8,9.194 8,7C8,4.806 9.806,3 12,3C14.194,3 16,4.806 16,7ZM12,14C8.16,14 5,17.16 5,21L19,21C19,17.16 15.84,14 12,14Z" style="fill:none;fill-rule:nonzero;stroke:rgb(0,103,255);stroke-width:1.29px;stroke-miterlimit:4;"/>
        </g>
        <ellipse cx="544.252" cy="1196.06" rx="217.186" ry="156.057" style="fill:none;stroke:rgb(0,103,255);stroke-width:14.58px;"/>
        <ellipse cx="316.89" cy="1466.8" rx="43.704" ry="26.533" style="fill:none;stroke:rgb(0,103,255);stroke-width:3.13px;"/>
        <ellipse cx="386.434" cy="1379.22" rx="50.981" ry="32.02" style="fill:none;stroke:rgb(0,103,255);stroke-width:3.33px;"/>
        <g transform="matrix(1,0,0,1,50.9478,4.70571)">
            <text x="457.121px" y="1280.31px" style="font-family:'Inter-Medium', 'Inter', sans-serif;font-weight:500;font-size:250px;fill:rgb(0,102,255);">!</text>
        </g>
    </g>
    <g transform="matrix(1,0,0,1,305.004,-68.5773)">
        <g transform="matrix(12.6547,0,0,9.84252,1739.87,1987.68)">
            <path d="M16,7C16,9.194 14.194,11 12,11C9.806,11 8,9.194 8,7C8,4.806 9.806,3 12,3C14.194,3 16,4.806 16,7ZM12,14C8.16,14 5,17.16 5,21L19,21C19,17.16 15.84,14 12,14Z" style="fill:none;fill-rule:nonzero;stroke:rgb(0,103,255);stroke-width:1.29px;stroke-miterlimit:4;"/>
        </g>
        <g transform="matrix(12.6547,0,0,9.84252,1375.1,1991.82)">
            <path d="M16,7C16,9.194 14.194,11 12,11C9.806,11 8,9.194 8,7C8,4.806 9.806,3 12,3C14.194,3 16,4.806 16,7ZM12,14C8.16,14 5,17.16 5,21L19,21C19,17.16 15.84,14 12,14Z" style="fill:none;fill-rule:nonzero;stroke:rgb(0,103,255);stroke-width:1.29px;stroke-miterlimit:4;"/>
        </g>
        <g transform="matrix(1,0,0,1,-1001.11,1701.99)">
            <text x="2520.63px" y="617.343px" style="font-family:'Inter-Medium', 'Inter', sans-serif;font-weight:500;font-size:83.333px;fill:rgb(0,102,255);">Int<tspan x="2623.38px 2672.33px 2705.76px " y="617.343px 617.343px 617.343px ">erv</tspan>ie<tspan x="2822.54px " y="617.343px ">w</tspan>s</text>
        </g>
        <g transform="matrix(1,0,0,1,-35.9399,30.167)">
            <text x="1663.53px" y="2049.88px" style="font-family:'Inter-Medium', 'Inter', sans-serif;font-weight:500;font-size:83.333px;fill:rgb(0,102,255);">----</text>
        </g>
    </g>
    <g transform="matrix(1,0,0,1,324.352,-91.0518)">
        <g transform="matrix(1,0,0,1,50.6621,1375.25)">
            <text x="2520.63px" y="617.343px" style="font-family:'Inter-Medium', 'Inter', sans-serif;font-weight:500;font-size:83.333px;fill:rgb(0,102,255);">Jobs</text>
            <text x="2520.63px" y="700.676px" style="font-family:'Inter-Medium', 'Inter', sans-serif;font-weight:500;font-size:83.333px;fill:rgb(0,102,255);">t<tspan x="2551.14px " y="700.676px ">o</tspan> be done</text>
        </g>
        <g transform="matrix(12.6547,0,0,12.6547,2268.81,1853.98)">
            <path d="M9,12L15,12M9,16L15,16M17,21L7,21C5.903,21 5,20.097 5,19L5,5C5,3.903 5.903,3 7,3L12.586,3C12.851,3 13.106,3.106 13.293,3.293L18.707,8.707C18.894,8.894 19,9.149 19,9.414L19,19C19,20.097 18.097,21 17,21Z" style="fill:none;fill-rule:nonzero;stroke:rgb(0,103,255);stroke-width:1.15px;stroke-miterlimit:4;"/>
        </g>
    </g>
    <g transform="matrix(1,0,0,1,-39.3284,87.35)">
        <g transform="matrix(1,0,0,1,-510.637,1094.61)">
            <text x="2520.63px" y="617.343px" style="font-family:'Inter-Medium', 'Inter', sans-serif;font-weight:500;font-size:83.333px;fill:rgb(0,102,255);">Sur<tspan x="2657.23px 2702.84px 2750.42px " y="617.343px 617.343px 617.343px ">vey</tspan>s</text>
        </g>
        <g transform="matrix(12.6547,0,0,12.6547,1714.78,1514.34)">
            <path d="M9,12L15,12M9,16L15,16M17,21L7,21C5.903,21 5,20.097 5,19L5,5C5,3.903 5.903,3 7,3L12.586,3C12.851,3 13.106,3.106 13.293,3.293L18.707,8.707C18.894,8.894 19,9.149 19,9.414L19,19C19,20.097 18.097,21 17,21Z" style="fill:none;fill-rule:nonzero;stroke:rgb(0,103,255);stroke-width:1.15px;stroke-miterlimit:4;"/>
        </g>
    </g>
    <g transform="matrix(1,0,0,1,-18.9678,69.6363)">
        <g transform="matrix(1,0,0,1,280.889,324.61)">
            <text x="2715.99px" y="617.343px" style="font-family:'Inter-Medium', 'Inter', sans-serif;font-weight:500;font-size:83.333px;fill:rgb(0,102,255);">Social</text>
        </g>
        <g transform="matrix(0.346026,0,0,0.346026,2800.36,824.64)">
            <path d="M500.398,94.784C492.355,98.351 484.085,101.362 475.635,103.807C485.639,92.493 493.266,79.181 497.922,64.614C498.966,61.349 497.884,57.775 495.2,55.639C492.519,53.502 488.795,53.246 485.844,54.995C467.899,65.638 448.539,73.287 428.239,77.759C407.79,57.778 380.017,46.406 351.305,46.406C290.699,46.406 241.392,95.712 241.392,156.316C241.392,161.089 241.694,165.836 242.292,170.517C167.086,163.914 97.168,126.949 49.156,68.054C47.445,65.955 44.809,64.823 42.11,65.04C39.41,65.251 36.983,66.774 35.619,69.115C25.881,85.824 20.733,104.935 20.733,124.38C20.733,150.864 30.188,175.991 46.891,195.626C41.812,193.867 36.884,191.669 32.18,189.058C29.655,187.652 26.573,187.674 24.064,189.112C21.554,190.551 19.98,193.196 19.913,196.088C19.901,196.575 19.901,197.062 19.901,197.556C19.901,237.087 41.177,272.678 73.706,292.076C70.911,291.797 68.119,291.392 65.344,290.862C62.483,290.315 59.542,291.318 57.613,293.5C55.681,295.68 55.041,298.719 55.932,301.494C67.972,339.085 98.971,366.734 136.446,375.164C105.364,394.632 69.82,404.829 32.507,404.829C24.721,404.829 16.891,404.372 9.228,403.465C5.421,403.012 1.781,405.26 0.484,408.881C-0.813,412.503 0.562,416.541 3.8,418.617C51.735,449.352 107.161,465.597 164.084,465.597C275.987,465.597 345.991,412.828 385.01,368.56C433.667,313.361 461.572,240.299 461.572,168.109C461.572,165.093 461.526,162.048 461.433,159.012C480.63,144.549 497.157,127.045 510.606,106.927C512.649,103.872 512.428,99.833 510.061,97.021C507.7,94.204 503.76,93.294 500.398,94.784Z" style="fill:rgb(115,161,251);fill-rule:nonzero;"/>
        </g>
    </g>
    <g transform="matrix(1,0,0,1,-18.9678,69.6363)">
        <path d="M953.865,1744.58C968.621,1744.58 983.716,1744.22 998.591,1744.22C1001.79,1744.22 1014.32,1743.07 1017.76,1744.78C1018.46,1745.12 1018.46,1750.96 1018.56,1751.82C1019.29,1758.13 1019.1,1764.28 1019.1,1770.57C1019.1,1775.63 1020.13,1782.04 1018.94,1786.74C1018.9,1786.89 1019.04,1788.16 1018.78,1788.16C1006.45,1788.05 994.219,1781.98 981.61,1784.12C974.215,1785.38 965.971,1789.01 958.253,1787.08C957.171,1786.81 952.813,1787.75 952.477,1787.08C951.159,1784.44 952.677,1778.14 952.677,1775.18C952.677,1765.34 953.647,1757 953.647,1747.92" style="fill:none;stroke:rgb(0,103,255);stroke-width:8.33px;"/>
    </g>
    <g transform="matrix(1,0,0,1,-18.9678,69.6363)">
        <path d="M949.645,1830C965.653,1830 982.005,1831.31 998.197,1831.31C1000.08,1831.31 1017.31,1830.7 1018.13,1831.51C1019.63,1833.01 1018.6,1844.71 1019.46,1849.02C1020.54,1854.49 1023.46,1874.03 1018.59,1878.81C1018.47,1878.93 1018.28,1878.68 1018.11,1878.65C1012.48,1877.68 1006.78,1876.53 1001.03,1876.12C988.746,1875.24 977.854,1876.25 965.865,1877.8C963.598,1878.1 955.639,1877.87 954.154,1879.33C953.926,1879.55 953.907,1879.51 953.676,1879.16C950.937,1875.06 949.763,1867 949.18,1862.34C947.828,1851.51 947.061,1837.63 947.061,1828.26" style="fill:none;stroke:rgb(0,103,255);stroke-width:8.33px;"/>
    </g>
    <g transform="matrix(1,0,0,1,-18.9678,69.6363)">
        <path d="M951.581,1922L996.571,1922C996.936,1922 1013.25,1922.43 1013.37,1922.55C1014.33,1923.51 1011.99,1942.67 1011.63,1945.71C1011.41,1947.55 1013.54,1967.36 1013.06,1967.83C1012.43,1968.45 1008.58,1967.06 1007.77,1966.98C1000.56,1966.24 992.951,1966.21 985.908,1964.34C976.267,1961.79 961.1,1966.58 950.639,1966.4C950.61,1966.4 950.639,1955.26 950.639,1954.75C950.639,1943.76 951.603,1933.88 951.603,1923.42" style="fill:none;stroke:rgb(0,103,255);stroke-width:8.33px;"/>
    </g>
</svg>
