<?xml version="1.0" encoding="UTF-8" standalone="no"?>
<!DOCTYPE svg PUBLIC "-//W3C//DTD SVG 1.1//EN" "http://www.w3.org/Graphics/SVG/1.1/DTD/svg11.dtd">
<svg width="100%" height="100%" viewBox="0 0 24 24" version="1.1" xmlns="http://www.w3.org/2000/svg" xmlns:xlink="http://www.w3.org/1999/xlink" xml:space="preserve" xmlns:serif="http://www.serif.com/" style="fill-rule:evenodd;clip-rule:evenodd;stroke-linecap:round;stroke-miterlimit:10;">
    <g transform="matrix(1,0,0,1.00297,0,-0.000104855)">
        <path d="M23.996,6.016C23.996,2.715 21.308,0.035 17.997,0.035L5.999,0.035C2.688,0.035 0,2.715 0,6.016L0,17.983C0,21.284 2.688,23.964 5.999,23.964L17.997,23.964C21.308,23.964 23.996,21.284 23.996,17.983L23.996,6.016Z" style="fill:rgb(97,136,51);"/>
    </g>
    <g transform="matrix(0.0384644,0,0,0.0384615,2.1525,2.15385)">
        <path d="M431,320.6C430,317 432.2,312 434.3,308.4C434.942,307.329 435.643,306.294 436.4,305.3C454.36,278.612 463.971,247.169 464,215C464.3,122.8 386.5,48 290.3,48C206.4,48 136.4,105.1 120,180.9C117.547,192.135 116.306,203.6 116.3,215.1C116.3,307.4 191.1,384.2 287.3,384.2C302.6,384.2 323.2,379.6 334.5,376.5C345.8,373.4 357,369.3 359.9,368.2C362.873,367.079 366.023,366.503 369.2,366.5C372.666,366.487 376.1,367.167 379.3,368.5L436,388.6C437.243,389.126 438.557,389.463 439.9,389.6C444.289,389.6 447.9,385.989 447.9,381.6C447.83,380.685 447.663,379.78 447.4,378.9L431,320.6Z" style="fill:none;fill-rule:nonzero;stroke:white;stroke-width:32px;"/>
    </g>
    <g transform="matrix(0.0384644,0,0,0.0384615,2.1525,2.15385)">
        <path d="M66.46,232C39.758,279.971 42.232,339.098 72.85,384.67C75.16,388.16 76.46,390.86 76.06,392.67C75.66,394.48 64.13,454.54 64.13,454.54C63.566,457.399 64.607,460.348 66.84,462.22C68.305,463.387 70.127,464.016 72,464C73.001,464.003 73.992,463.798 74.91,463.4L131.12,441.4C134.987,439.875 139.306,439.947 143.12,441.6C162.06,448.98 183,453.6 203.95,453.6C232.061,453.63 259.684,446.214 284,432.11" style="fill:none;fill-rule:nonzero;stroke:white;stroke-width:32px;"/>
    </g>
</svg>
